<?xml version="1.0" ?><svg enable-background="new 0 0 64 64" version="1.1" viewBox="0 0 64 64" xml:space="preserve" xmlns="http://www.w3.org/2000/svg" xmlns:xlink="http://www.w3.org/1999/xlink"><g id="Layer_3"><g><g><path d="M32.001,63.251c-17.23,0-31.25-14.02-31.25-31.25s14.02-31.25,31.25-31.25s31.25,14.02,31.25,31.25     S49.231,63.251,32.001,63.251z" fill="#FFFFFF"/><path d="M32,1.5c16.818,0,30.5,13.682,30.5,30.5S48.818,62.5,32,62.5S1.5,48.818,1.5,32S15.182,1.5,32,1.5 M32,0     C14.327,0,0,14.327,0,32c0,17.673,14.327,32,32,32s32-14.327,32-32C64,14.327,49.673,0,32,0L32,0z" fill="#E5E5E5"/></g></g><g><g id="Outline_Filled_4_"><path d="M32.243,48.835c-0.098,0-0.194-0.002-0.291-0.008l0,0c-0.061,0.004-0.126,0.008-0.189,0.008     c-2.251,0-3.698-1.021-5.095-2.009c-0.966-0.682-1.876-1.326-2.948-1.503c-0.524-0.088-1.045-0.13-1.548-0.13     c-0.907,0-1.624,0.141-2.145,0.242c-0.318,0.063-0.591,0.116-0.801,0.116c-0.218,0-0.452-0.047-0.556-0.397     c-0.09-0.304-0.153-0.597-0.216-0.88c-0.159-0.731-0.273-1.182-0.579-1.228c-3.571-0.552-4.594-1.304-4.822-1.838     c-0.033-0.075-0.051-0.153-0.055-0.228c-0.012-0.206,0.134-0.385,0.336-0.42c5.49-0.905,7.951-6.515,8.053-6.753     c0.002-0.006,0.006-0.012,0.008-0.02c0.336-0.68,0.401-1.271,0.196-1.756c-0.377-0.888-1.605-1.277-2.418-1.536     c-0.2-0.063-0.387-0.122-0.536-0.181c-1.624-0.642-1.758-1.3-1.695-1.636c0.108-0.572,0.874-0.97,1.491-0.97     c0.169,0,0.318,0.031,0.444,0.09c0.729,0.342,1.387,0.515,1.956,0.515c0.784,0,1.127-0.33,1.169-0.373     c-0.02-0.371-0.045-0.76-0.069-1.159c-0.163-2.595-0.367-5.82,0.454-7.662c2.461-5.519,7.68-5.947,9.22-5.947     c0.039,0,0.676-0.006,0.676-0.006h0.092c1.544,0,6.774,0.43,9.237,5.951c0.821,1.842,0.617,5.069,0.454,7.662l-0.006,0.112     c-0.022,0.361-0.045,0.713-0.063,1.049c0.039,0.041,0.354,0.342,1.065,0.371l0,0c0.54-0.02,1.161-0.194,1.844-0.511     c0.2-0.094,0.422-0.112,0.572-0.112c0.23,0,0.464,0.045,0.658,0.126l0.012,0.004c0.552,0.196,0.913,0.583,0.921,0.986     c0.008,0.381-0.283,0.951-1.707,1.514c-0.147,0.057-0.336,0.118-0.536,0.181c-0.815,0.259-2.043,0.648-2.418,1.536     c-0.206,0.485-0.141,1.076,0.196,1.756c0.002,0.006,0.006,0.012,0.008,0.02c0.102,0.238,2.561,5.847,8.053,6.751     c0.204,0.033,0.348,0.214,0.336,0.42c-0.004,0.077-0.022,0.155-0.057,0.23c-0.226,0.53-1.249,1.281-4.82,1.833     c-0.291,0.045-0.405,0.426-0.579,1.222c-0.063,0.289-0.128,0.574-0.216,0.876c-0.075,0.261-0.238,0.381-0.511,0.381h-0.045     c-0.189,0-0.458-0.035-0.799-0.1c-0.605-0.118-1.283-0.228-2.145-0.228c-0.503,0-1.025,0.045-1.548,0.13     c-1.072,0.179-1.982,0.821-2.946,1.501C35.941,47.812,34.495,48.835,32.243,48.835z" fill="#333333"/></g></g></g></svg>