<?xml version="1.0" ?><svg enable-background="new 0 0 32 32" id="Layer_1" version="1.1" viewBox="0 0 32 32" xml:space="preserve" xmlns="http://www.w3.org/2000/svg" xmlns:xlink="http://www.w3.org/1999/xlink"><g><g><path d="M16,31.625c-8.615,0-15.625-7.01-15.625-15.625C0.375,7.384,7.385,0.375,16,0.375S31.625,7.384,31.625,16    C31.625,24.615,24.615,31.625,16,31.625z" fill="#FFFFFF"/><path d="M16,0.75c8.409,0,15.25,6.841,15.25,15.25S24.409,31.25,16,31.25S0.75,24.409,0.75,16S7.591,0.75,16,0.75     M16,0C7.163,0,0,7.163,0,16c0,8.836,7.163,16,16,16s16-7.164,16-16C32,7.163,24.837,0,16,0L16,0z" fill="#E5E5E5"/></g></g><g id="style_4_1_"><g><rect fill="#3A3A3A" height="5.88" transform="matrix(0.7879 -0.6158 0.6158 0.7879 -7.8033 18.273)" width="2.4" x="21.425" y="17.524"/><path d="M22.513,24.284l-3.621-4.633c0,0-2.361-0.553-4.043-2.704c-1.681-2.151-1.647-4.576-1.647-4.576    L9.581,7.738c0,0-3.431,4.915,1.951,11.801S22.513,24.284,22.513,24.284z" fill="#3A3A3A"/><rect fill="#3A3A3A" height="5.88" transform="matrix(0.7879 -0.6158 0.6158 0.7879 -2.4428 10.0124)" width="2.4" x="12.113" y="5.612"/></g></g></svg>